<svg xmlns="http://www.w3.org/2000/svg" version="1.1" x="0px" y="0px" viewBox="0 0 56 56" enable-background="new 0 0 56 56" xml:space="preserve"><style>.s0{stop-color:#FFFFFF;stop-opacity:0.1;}</style><g id="Shared"><radialGradient id="SVGID_2_" cx="6.7354" cy="8.8563" r="57.4654" gradientUnits="userSpaceOnUse"><stop offset="0" stop-color="#5D85F8"/><stop offset="0.65" stop-color="#4E77EB"/><stop offset="0.9099" stop-color="#4A71E5"/><stop offset="1" stop-color="#476EE1"/></radialGradient><path fill="url(#SVGID_2_)" d="M45.86 8.8H10.14c-1.973 0-3.572 1.599-3.572 3.572v31.255c0 1.973 1.599 3.572 3.572 3.572h28.576l4.464-6.253 6.252-4.463V12.373C49.432 10.4 47.833 8.8 45.86 8.8zM15.498 16.926c-1.036 0-1.876-0.839-1.876-1.877 0-1.034 0.84-1.873 1.876-1.873 1.035 0 1.875 0.839 1.875 1.873C17.373 16.087 16.533 16.926 15.498 16.926zM40.502 16.926c-1.035 0-1.875-0.839-1.875-1.877 0-1.034 0.84-1.873 1.875-1.873 1.036 0 1.876 0.839 1.876 1.873C42.378 16.087 41.538 16.926 40.502 16.926z"/><path fill="#F2F2F2" d="M31.572 23.34v1.967h4.577v14.749h2.567V20.41h-1.99C35.988 22.663 33.9 23.306 31.572 23.34z"/><radialGradient id="SVGID_4_" cx="38.716" cy="47.1407" r="10.6214" gradientUnits="userSpaceOnUse"><stop offset="0.15" stop-color="#A6A6A6"/><stop offset="1" stop-color="#B3B3B3"/></radialGradient><polygon fill="url(#SVGID_4_)" points="38.716,36.484 38.716,47.2 28,47.2          "/><polygon fill="#A8C1FC" points="38.716,47.2 38.716,36.484 49.432,36.484           "/><path fill="#F2F2F2" d="M25.406 29.484V29.43c1.47-0.682 2.67-2.152 2.67-3.842 0-3.57-2.534-5.178-5.886-5.178 -3.818 0-5.775 2.498-5.958 6.097h2.316c0.073-2.198 1.163-4.053 3.642-4.053 1.963 0 3.433 1.088 3.433 3.108 0 2.098-1.717 3.159-3.678 3.159 -0.328 0-0.656 0-1.009-0.026v1.96c0.436-0.054 0.926-0.08 1.389-0.08 2.288 0 4.115 1.28 4.115 3.705 0 2.344-1.934 3.734-4.195 3.734 -2.574 0-3.951-1.66-4.097-4.06h-2.331c0.005 3.858 2.567 6.103 6.428 6.103 3.623 0 6.647-2.015 6.647-5.885C28.893 31.855 27.749 30.002 25.406 29.484z"/><radialGradient id="SVGID_6_" cx="6.7354" cy="8.8563" r="57.4654" gradientUnits="userSpaceOnUse"><stop offset="0" class="s0"/><stop offset="0.0896" class="s0"/><stop offset="1" style="stop-color:#FFFFFF;stop-opacity:0"/></radialGradient><path fill="url(#SVGID_6_)" d="M45.86 8.8H10.14c-1.973 0-3.572 1.599-3.572 3.572v31.255c0 1.973 1.599 3.572 3.572 3.572h28.576l10.716-10.716V12.373C49.432 10.4 47.833 8.8 45.86 8.8zM15.498 16.926c-1.036 0-1.876-0.839-1.876-1.877 0-1.034 0.84-1.873 1.876-1.873 1.035 0 1.875 0.839 1.875 1.873C17.373 16.087 16.533 16.926 15.498 16.926zM40.502 16.926c-1.035 0-1.875-0.839-1.875-1.877 0-1.034 0.84-1.873 1.875-1.873 1.036 0 1.876 0.839 1.876 1.873C42.378 16.087 41.538 16.926 40.502 16.926z"/></g><g id="Side_Gradients"/><g id="Footer"/><g id="Header"/><g id="Guides" display="none"/></svg>