<?xml version="1.0" encoding="utf-8"?>
<!-- Generator: Adobe Illustrator 16.0.4, SVG Export Plug-In . SVG Version: 6.00 Build 0)  -->
<!DOCTYPE svg PUBLIC "-//W3C//DTD SVG 1.1//EN" "http://www.w3.org/Graphics/SVG/1.1/DTD/svg11.dtd">
<svg version="1.1" id="Calque_1" xmlns="http://www.w3.org/2000/svg" xmlns:xlink="http://www.w3.org/1999/xlink" x="0px" y="0px"
	 width="256px" height="256px" viewBox="0 0 256 256" enable-background="new 0 0 256 256" xml:space="preserve">
<symbol  id="fond-carre" viewBox="-256 -256 512 512">
	<path fill="#005396" d="M-256-256h512v512h-512V-256z"/>
</symbol>
<symbol  id="logoMiniature" viewBox="-194.3 -175.1 388.5 350.1">
	<g id="plume_x5F_interieur_4_">
		<path fill="#D4DCE6" d="M143.1-137.3c-17.4,18.9-68,62.8-79.2,77.5H40.3l0,0h6.3c0,0,23.7-19.7,27.9-24.4c0,0-18.8,11.9-34.2,24.4
			v-19.3c1.8-0.3,3.8-0.7,6-1.4c-0.1,0-0.3,0.1-0.4,0.2C88.7-93.1,143.1-137.3,143.1-137.3z"/>
	</g>
	<path fill="#0071CE" d="M74.7-84.2C70.7-79.8,49-61.6,47-59.9h-6.4C56-72.3,74.7-84.2,74.7-84.2z"/>
	<path fill="#0071CE" d="M143.3-137.2c0,0-56.4,45.2-97.1,56.8c0.1,0,0.3-0.1,0.4-0.2c44.7-17.6,111.9-70.8,111.9-70.8
		s-32.4,39-85.4,89.4c-0.7,0.7-1.4,1.4-2.1,2h-6.7C75.7-74.9,126-118.4,143.3-137.2z"/>
	<path fill="#FFFFFF" d="M194.3,14.1v89.5h-295.4V44.3c0,0,11.7,0,23.3,0c11.6,0,13-6.2,13-14.6c0-8.4,0-126.9,0-133.9
		S-69.7-116-76.7-116s-24.3,0-24.3,0v-59.1H82.8v59.1c0,0-11.7,0-22.9,0c-14.5,0-19.3,4.6-19.3,15.6c0,14.3,0,40.3,0,40.3h0.1h6.4
		h17.2H71h30.2v54H40.6v50.2c0,0,51.4,0,65.4,0c11.1,0,16-6.9,16-15c0-9.1,0-15.2,0-15.2h72.3V14.1z"/>
	<g id="plume_x5F_interieur_3_">
		<path fill="#D4DCE6" d="M-187.8,162.8c-0.5-20.1,5.7-49.1,5.7-49.1s-4.1,2.6-9.4,9.9c7.1-39.5,21.7-60.5,52.8-83.2l10.9-7.5
			c-11.4-2.2-30.1,4.3-30.1,4.3c11.2-12.1,38.9-34,69.6-43.4l10.6-3c-4.5-5-12.8-6.2-24.4-5.9c5.1-5.6,21.1-15,37.5-22.4v65.3
			c0,9.5-0.6,16.6-12.8,16.7c-11.8,0-23.6,0-23.6,0c0,17.7,0,54.1,0,58.9c-20.3,8.2-45,23.1-65.7,39.9
			C-166.7,143.2-181.3,155.1-187.8,162.8z"/>
	</g>
	<path id="plume_contour_2_" fill="#0071CE" d="M-2.6,35.1c-0.3,0.6-4.3,6.9-7.7,12.1c-3.5,5.6-15.7,21.4-23.6,29.4
		c-9,9.1-22.5,19.8-26.7,22.5c-3.9,2.6-22.5,13.1-26.8,14.1c-0.2,0-0.3,0-0.3,0l3.7-8.9c-60.1,15.3-109.7,72.4-108.4,70.7
		c0.6-0.8,2.8-49.6,6.3-54l-8.1,10.4c0,0-1.5-59.8,54.5-94.9c0,0-11.1,0.3-27.5,6.7c0,0,30.6-39.2,81.3-53.5c0,0-7-3.2-24.7-1
		c0,0,26.1-29.8,103-48.2c0,0-80.3,29.4-93.8,44.3c11.6-0.3,19.5,1.1,24,6.1l-10.7,3c-30.7,9.4-57.8,30.8-69,42.9
		c0,0,18.3-6.1,29.7-3.9l-11.1,7.7c-31,22.7-45.5,43-52.6,82.5c5.3-7.3,9.3-9.7,9.3-9.7s-6.2,28.8-5.7,48.9
		c4.8-5.7,13.9-13.4,18.4-17.1v-21.9c-10.1,17.2-15.8,32.8-18.3,38.9c0.5-1.9,3.1-21.2,15.3-43c15-26.7,25.8-38.8,70.4-64.8
		c33.4-19.5,67.5-39,99.7-70.5C-2.2-9.4-1.4,3.2-1.4,11.7C-1.4,17.3-2.1,34.1-2.6,35.1z M-154.4,101.9c-5.1,6.3-9.6,12.8-13.5,19.1
		v23.1c0.8-0.6,1.2-1,1.2-1c3.8-3.1,7.9-6.2,11.9-9.2c0.3-7.2,0.3-16.3,0.3-24.1C-154.4,106.4-154.4,103.9-154.4,101.9z
		 M-139.6,86.4c-4.8,4.3-9.2,8.8-13.2,13.5c0,2.1,0,5.2,0,9.9c0,7.4-0.1,15.8-0.3,22.9c4.2-3,8.6-6,13-8.8
		c0.5-7.5,0.6-16.3,0.6-23.9C-139.5,94.5-139.6,89.7-139.6,86.4z M-124.9,75.4c-2.6,1.7-5.2,3.5-7.9,5.4c-1.8,1.3-3.4,2.7-5,4.1
		c0.1,3.1,0.2,8.7,0.2,15.2c0,7.2-0.1,15.4-0.5,22.7c4.2-2.6,8.4-5.2,12.6-7.5c0.7-8,1-17.2,0.9-25C-124.6,84-124.8,78.7-124.9,75.4
		z M-110,66c-4.1,2.5-8.3,5.1-12.8,8c0.1,3,0.3,9,0.3,16.2c0,7.5-0.2,16.1-0.8,23.8c4.1-2.3,8.2-4.3,12.1-6.2
		c1.1-8.8,1.4-18.9,1.4-27.4C-109.7,74.5-109.9,69.3-110,66z M-95.2,57.3c-4.1,2.3-8.3,4.7-12.5,7.3c0.1,3.2,0.3,9,0.3,15.8
		c0,8.1-0.2,17.6-1.2,26.1c4-1.8,7.8-3.4,11.5-4.8c1.7-9.8,2.2-21.6,2.2-31.2C-94.9,65.3-95,60.6-95.2,57.3z M-80.2,48.8
		c-4.2,2.4-8.3,4.7-12.4,7c0.2,3.4,0.4,8.6,0.4,14.7c0,9.2-0.4,20.3-2,30.1c3.1-1.1,5.9-1.9,8.7-2.6l1.8-0.4
		C-80.8,86.3-80,72-80,60.7C-80,55.8-80.1,51.8-80.2,48.8z M-65.3,40c-4.2,2.6-8.2,5-12.1,7.2c0.2,3.1,0.3,7.7,0.3,13.6
		c0,11-0.6,24.7-3.4,36.2l4.3-1.1l-2.4,6.3c1.6-0.9,3.5-1.6,5.6-2.8c6.4-12.9,7.9-33.6,7.9-48.4C-65.1,46.4-65.2,42.7-65.3,40z
		 M-50.5,30.4c-4.1,2.7-8,5.3-11.7,7.6c0.1,2.9,0.3,7.2,0.3,12.9c0,13.6-1.2,33-6.6,46.6c2.9-2,5.2-3.3,9.6-7
		c7-14.1,8.8-34.5,8.7-49.4C-50.2,36.5-50.4,33-50.5,30.4z M-35.7,20.2c-3.5,2.5-7.4,5.2-11.6,8.1c0.2,2.7,0.5,6.9,0.5,12.9
		c0,13.5-1.2,31.5-6.9,45.9c3.7-2.7,7.4-5.9,10.9-9.2c6-14.7,7.5-32.8,7.5-46.4C-35.3,26.6-35.5,23-35.7,20.2z M-20.9,9.2
		c-3.2,2.5-7,5.3-11.3,8.4c0.3,3,0.5,7.5,0.5,13.7c0,11.6-1,26.6-5.1,40.3c4.3-4.6,8.4-9.5,12.2-14.2c3.3-12.5,4.2-25.5,4.1-35.9
		C-20.5,16.7-20.6,12.5-20.9,9.2z M-6.2-2.9c-2.3,2.2-5.8,5.2-11,9.3c0.3,3.6,0.6,8.9,0.6,15.2c0,8.3-0.6,18.4-2.4,28.6
		c4.4-5.8,8.9-13.1,12-17.3c0.2-0.3,0.2-0.3,0.5-0.8c0.5-1.3,1-16.9,1-19.3C-5.5,6.7-5.8,0.6-6.2-2.9z"/>
</symbol>
<g>
	
		<use xlink:href="#fond-carre"  width="512" height="512" id="XMLID_4_" x="-256" y="-256" transform="matrix(0.5221 0 0 -0.5221 129.1504 126.6504)" overflow="visible"/>
	
		<use xlink:href="#logoMiniature"  width="388.5" height="350.1" id="XMLID_3_" x="-194.3" y="-175.1" transform="matrix(0.5218 0 0 -0.5218 127.689 116.8027)" overflow="visible"/>
</g>
<path fill="#005396" d="M-4.5,260.3h267.3V-7H-4.5V260.3z"/>
<g id="plume_x5F_interieur_2_">
	<path fill="#D4DCE6" d="M201.5,195.5c-9-9.8-35.4-32.6-41.2-40.3H148l0,0h3.3c0,0,12.3,10.2,14.5,12.7c0,0-9.8-6.2-17.8-12.7v10
		c0.9,0.2,2,0.4,3.1,0.7c-0.1,0-0.2-0.1-0.2-0.1C173.2,172.5,201.5,195.5,201.5,195.5z"/>
</g>
<path fill="#0071CE" d="M165.9,167.9c-2.1-2.3-13.4-11.7-14.4-12.6h-3.3C156.2,161.7,165.9,167.9,165.9,167.9z"/>
<path fill="#0071CE" d="M201.6,195.5c0,0-29.3-23.5-50.5-29.5c0.1,0,0.2,0.1,0.2,0.1c23.2,9.2,58.2,36.8,58.2,36.8
	s-16.8-20.3-44.4-46.5c-0.4-0.4-0.7-0.7-1.1-1h-3.5C166.4,163.1,192.6,185.7,201.6,195.5z"/>
<path fill="#FFFFFF" d="M228.1,116.8V70.3H74.5v30.8c0,0,6.1,0,12.1,0c6,0,6.8,3.2,6.8,7.6c0,4.4,0,66,0,69.6c0,3.6-2.5,6.1-6.2,6.1
	s-12.6,0-12.6,0v30.7h95.6v-30.7c0,0-6.1,0-11.9,0c-7.5,0-10-2.4-10-8.1c0-7.4,0-21,0-21h0.1h3.3h8.9h3.5h15.7v-28.1h-31.5v-26.1
	c0,0,26.7,0,34,0c5.8,0,8.3,3.6,8.3,7.8c0,4.7,0,7.9,0,7.9h37.6V116.8z"/>
<g id="plume_x5F_interieur_1_">
	<path fill="#D4DCE6" d="M29.4,39.5c-0.3,10.4,3,25.5,3,25.5s-2.1-1.4-4.9-5.1c3.7,20.5,11.3,31.5,27.5,43.3l5.7,3.9
		c-5.9,1.1-15.6-2.2-15.6-2.2c5.8,6.3,20.2,17.7,36.2,22.6l5.5,1.6c-2.3,2.6-6.7,3.2-12.7,3.1c2.7,2.9,11,7.8,19.5,11.6v-33.9
		c0-4.9-0.3-8.6-6.7-8.7c-6.1,0-12.3,0-12.3,0c0-9.2,0-28.1,0-30.6c-10.6-4.3-23.4-12-34.2-20.7C40.4,49.7,32.8,43.5,29.4,39.5z"/>
</g>
<path id="plume_contour_1_" fill="#0071CE" d="M125.7,105.9c-0.2-0.3-2.2-3.6-4-6.3c-1.8-2.9-8.2-11.1-12.3-15.3
	c-4.7-4.7-11.7-10.3-13.9-11.7c-2-1.4-11.7-6.8-13.9-7.3c-0.1,0-0.2,0-0.2,0l1.9,4.6c-31.2-8-57-37.6-56.4-36.8
	c0.3,0.4,1.5,25.8,3.3,28.1l-4.2-5.4c0,0-0.8,31.1,28.3,49.3c0,0-5.8-0.2-14.3-3.5c0,0,15.9,20.4,42.3,27.8c0,0-3.6,1.7-12.8,0.5
	c0,0,13.6,15.5,53.5,25.1c0,0-41.7-15.3-48.8-23c6,0.2,10.1-0.6,12.5-3.2l-5.6-1.6c-16-4.9-30-16-35.9-22.3c0,0,9.5,3.2,15.4,2
	l-5.8-4C38.9,91.2,31.4,80.7,27.7,60.1c2.8,3.8,4.8,5,4.8,5s-3.2-15-3-25.4c2.5,3,7.2,7,9.6,8.9V60c-5.3-8.9-8.2-17.1-9.5-20.2
	c0.3,1,1.6,11,8,22.4C45.4,76,51,82.3,74.2,95.8c17.4,10.1,35.1,20.3,51.8,36.7c-0.1-3.5,0.3-10,0.3-14.5
	C126.3,115.1,126,106.4,125.7,105.9z M46.8,71.1c-2.7-3.3-5-6.7-7-9.9v-12c0.4,0.3,0.6,0.5,0.6,0.5c2,1.6,4.1,3.2,6.2,4.8
	c0.2,3.7,0.2,8.5,0.2,12.5C46.8,68.8,46.8,70.1,46.8,71.1z M54.5,79.2c-2.5-2.2-4.8-4.6-6.9-7c0-1.1,0-2.7,0-5.1
	c0-3.8-0.1-8.2-0.2-11.9c2.2,1.6,4.5,3.1,6.8,4.6c0.3,3.9,0.3,8.5,0.3,12.4C54.5,75,54.5,77.5,54.5,79.2z M62.1,84.9
	c-1.4-0.9-2.7-1.8-4.1-2.8c-0.9-0.7-1.8-1.4-2.6-2.1c0.1-1.6,0.1-4.5,0.1-7.9c0-3.7-0.1-8-0.3-11.8c2.2,1.4,4.4,2.7,6.6,3.9
	c0.4,4.2,0.5,8.9,0.5,13C62.3,80.5,62.2,83.2,62.1,84.9z M69.9,89.8c-2.1-1.3-4.3-2.7-6.7-4.2c0.1-1.6,0.2-4.7,0.2-8.4
	c0-3.9-0.1-8.4-0.4-12.4c2.1,1.2,4.3,2.2,6.3,3.2c0.6,4.6,0.7,9.8,0.7,14.2C70,85.4,69.9,88.1,69.9,89.8z M77.6,94.3
	c-2.1-1.2-4.3-2.4-6.5-3.8c0.1-1.7,0.2-4.7,0.2-8.2c0-4.2-0.1-9.1-0.6-13.6c2.1,0.9,4.1,1.8,6,2.5c0.9,5.1,1.1,11.2,1.1,16.2
	C77.7,90.2,77.7,92.6,77.6,94.3z M85.4,98.8c-2.2-1.2-4.3-2.4-6.4-3.6c0.1-1.8,0.2-4.5,0.2-7.6c0-4.8-0.2-10.6-1-15.6
	c1.6,0.6,3.1,1,4.5,1.4l0.9,0.2c1.5,5.9,1.9,13.3,1.9,19.2C85.5,95.1,85.4,97.2,85.4,98.8z M93.1,103.3c-2.2-1.4-4.3-2.6-6.3-3.7
	c0.1-1.6,0.2-4,0.2-7.1c0-5.7-0.3-12.8-1.8-18.8l2.2,0.6L86.2,71c0.8,0.5,1.8,0.8,2.9,1.5c3.3,6.7,4.1,17.5,4.1,25.2
	C93.2,100,93.2,101.9,93.1,103.3z M100.8,108.3c-2.1-1.4-4.2-2.8-6.1-4c0.1-1.5,0.2-3.7,0.2-6.7c0-7.1-0.6-17.2-3.4-24.2
	c1.5,1,2.7,1.7,5,3.6c3.6,7.3,4.6,17.9,4.5,25.7C101,105.1,100.9,107,100.8,108.3z M108.5,113.6c-1.8-1.3-3.8-2.7-6-4.2
	c0.1-1.4,0.3-3.6,0.3-6.7c0-7-0.6-16.4-3.6-23.9c1.9,1.4,3.8,3.1,5.7,4.8c3.1,7.6,3.9,17.1,3.9,24.1
	C108.7,110.3,108.6,112.2,108.5,113.6z M116.2,119.3c-1.7-1.3-3.6-2.8-5.9-4.4c0.2-1.6,0.3-3.9,0.3-7.1c0-6-0.5-13.8-2.7-21
	c2.2,2.4,4.4,4.9,6.3,7.4c1.7,6.5,2.2,13.3,2.1,18.7C116.4,115.4,116.4,117.6,116.2,119.3z M123.8,125.6c-1.2-1.1-3-2.7-5.7-4.8
	c0.2-1.9,0.3-4.6,0.3-7.9c0-4.3-0.3-9.6-1.2-14.9c2.3,3,4.6,6.8,6.2,9c0.1,0.2,0.1,0.2,0.3,0.4c0.3,0.7,0.5,8.8,0.5,10
	C124.2,120.6,124,123.8,123.8,125.6z"/>
</svg>
